<svg width="20" height="20" viewBox="0 0 20 20" fill="none" xmlns="http://www.w3.org/2000/svg">
<path d="M12.3125 1.7915H4.92499C4.48959 1.7915 4.07203 1.96446 3.76416 2.27234C3.45629 2.58021 3.28333 2.99777 3.28333 3.43317V16.5665C3.28333 17.0019 3.45629 17.4195 3.76416 17.7273C4.07203 18.0352 4.48959 18.2082 4.92499 18.2082H14.775C15.2104 18.2082 15.628 18.0352 15.9358 17.7273C16.2437 17.4195 16.4167 17.0019 16.4167 16.5665V5.89567L12.3125 1.7915Z" stroke="white" stroke-width="1.64167" stroke-linecap="round" stroke-linejoin="round"/>
<path d="M11.4916 1.7915V5.07484C11.4916 5.51023 11.6646 5.9278 11.9725 6.23567C12.2803 6.54354 12.6979 6.7165 13.1333 6.7165H16.4166" stroke="white" stroke-width="1.64167" stroke-linecap="round" stroke-linejoin="round"/>
<path d="M8.20832 7.5376H6.56665" stroke="white" stroke-width="1.64167" stroke-linecap="round" stroke-linejoin="round"/>
<path d="M13.1333 10.8208H6.56665" stroke="white" stroke-width="1.64167" stroke-linecap="round" stroke-linejoin="round"/>
<path d="M13.1333 14.104H6.56665" stroke="white" stroke-width="1.64167" stroke-linecap="round" stroke-linejoin="round"/>
</svg>
